<?xml version="1.0" standalone="no"?>
<!DOCTYPE svg PUBLIC "-//W3C//DTD SVG 20010904//EN"
 "http://www.w3.org/TR/2001/REC-SVG-20010904/DTD/svg10.dtd">
<svg version="1.0" xmlns="http://www.w3.org/2000/svg"
 width="1920.000000pt" height="1920.000000pt" viewBox="0 0 1920.000000 1920.000000"
 preserveAspectRatio="xMidYMid meet">
<metadata>
Created by potrace 1.14, written by Peter Selinger 2001-2017
</metadata>
<g transform="translate(0.000000,1920.000000) scale(0.100000,-0.100000)"
fill="#000000" stroke="none">
<path d="M9637 14024 c-1 -1 -52 -5 -114 -8 -61 -4 -122 -9 -135 -12 -25 -5
-54 -9 -133 -19 -27 -3 -57 -8 -65 -10 -8 -2 -31 -7 -50 -10 -55 -9 -88 -24
-190 -90 -85 -56 -101 -71 -151 -146 -71 -106 -69 -102 -74 -141 -2 -18 -11
-66 -20 -106 -12 -61 -15 -167 -15 -621 0 -518 1 -552 21 -646 12 -55 25 -108
30 -117 12 -22 11 -25 -3 -25 -34 -1 -160 -14 -171 -19 -7 -2 -22 3 -32 13
-11 10 -33 19 -50 19 -16 1 -106 5 -200 9 -93 4 -204 8 -245 10 -91 4 -349 15
-445 20 -410 20 -570 23 -645 11 -88 -14 -116 -18 -160 -22 -25 -3 -58 -7 -75
-9 -86 -12 -104 -15 -154 -20 -29 -4 -63 -8 -75 -10 -11 -2 -61 -9 -111 -15
l-90 -12 -55 -59 -55 -60 0 -1754 1 -1755 25 -27 c14 -16 39 -42 55 -60 33
-36 5 -32 404 -58 52 -3 118 -7 145 -10 61 -5 246 -17 260 -17 11 0 562 13
697 16 80 2 86 1 77 -15 -5 -10 -13 -21 -19 -24 -5 -3 -9 -653 -9 -1713 l0
-1707 52 -56 c31 -33 64 -58 82 -62 17 -4 41 -10 55 -13 14 -3 43 -10 65 -16
22 -6 45 -11 50 -12 6 -1 19 -5 30 -9 11 -3 37 -8 57 -11 21 -2 42 -7 48 -11
6 -3 22 -8 35 -11 14 -2 65 -14 113 -25 48 -12 94 -22 102 -24 8 -2 64 -15
124 -30 79 -19 124 -24 165 -20 31 2 82 7 113 10 32 3 84 7 115 11 61 5 89 8
218 19 44 4 96 9 115 11 19 2 67 6 105 9 39 4 86 8 105 10 19 2 73 6 120 10
47 3 97 8 112 11 15 2 54 6 85 9 32 2 90 7 128 11 39 4 77 7 85 8 8 0 27 13
42 28 23 24 30 26 60 17 89 -26 177 -27 355 -5 21 3 67 8 103 11 36 3 83 7
105 9 22 2 76 7 120 10 44 4 96 9 115 11 19 3 64 7 100 10 100 7 181 14 225
19 88 10 182 19 220 21 22 2 47 3 56 4 9 1 38 29 65 63 l49 63 0 1678 1 1678
-48 56 c-26 31 -45 60 -43 64 3 4 47 5 97 2 51 -3 98 -5 103 -5 6 0 107 3 225
6 317 8 675 17 843 20 140 3 149 4 165 26 9 12 25 30 34 40 37 41 41 62 40
220 0 85 -1 160 -2 165 -1 6 -1 15 0 20 5 22 2 154 -4 164 -4 6 -4 11 1 11 10
0 9 502 -1 519 -4 6 -4 11 1 11 7 0 9 224 3 240 -1 3 -1 10 0 15 5 22 2 154
-4 164 -4 6 -4 11 1 11 10 0 9 502 -1 519 -4 6 -4 11 1 11 7 0 9 223 3 240 -1
3 -1 10 0 15 5 22 2 154 -4 164 -4 6 -4 11 1 11 10 0 9 503 -1 519 -4 6 -4 11
1 11 9 0 9 222 -1 238 -3 6 -2 12 4 14 14 4 -23 76 -62 119 -21 23 -42 36 -58
36 -29 0 -315 12 -445 19 -49 2 -144 6 -210 9 -66 3 -178 8 -250 11 -164 9
-379 9 -424 1 -23 -4 -38 -1 -48 9 -9 9 -37 14 -76 15 -34 1 -87 2 -117 4 -30
2 -119 6 -198 9 -79 3 -194 8 -255 12 -62 3 -139 6 -172 7 -69 3 -70 5 -20 80
31 48 50 106 70 222 10 53 13 1110 3 1155 -12 62 -18 94 -24 135 -4 22 -15 52
-25 67 -11 14 -19 31 -19 36 0 6 -3 12 -7 14 -5 2 -25 28 -45 59 -21 30 -48
64 -60 75 -31 26 -157 104 -169 104 -5 0 -9 4 -9 9 0 5 -12 11 -27 14 -75 14
-184 33 -248 42 -23 3 -51 7 -63 10 -58 11 -515 27 -525 19z"/>
</g>
</svg>
